# xmcd
#
# Track frame offsets: 
#        150
#        11609
#        21579
#        29989
#        37625
#        47836
#        59913
#        69657
#        80476
#        91523
#        102063
#        110890
#        121408
#        130724
#        143263
#        155288
#        169296
#        180900
#        190117
#        200308
#
# Disc length: 2851 seconds
#
# Revision: 0
# Processed by: cddbd v1.5.2PL0 Copyright (c) Steve Scherf et al.
# Submitted via: ExactAudioCopy v0.99pb4
#
DISCID=0a0b2114
DTITLE=Johnny Cash - Ballad of a Teenage Queen - (FabFour Box CD2)
DYEAR=1958
DGENRE=Country
TTITLE0=Big River
TTITLE1=Ballad of a Teenage Queen
TTITLE2=Guess Things Happen That Way
TTITLE3=Come In Stranger
TTITLE4=The Ways of a Woman in Love
TTITLE5=You're the Nearest Thing to Heaven
TTITLE6=It's Just About Time
TTITLE7=I Just Thought You'd Like to Know
TTITLE8=Run Softly, Blue River
TTITLE9=Frankie's Man, Johnny
TTITLE10=That's all Over
TTITLE11=The Troubador
TTITLE12=One More Ride
TTITLE13=That's Enough
TTITLE14=I Still Miss Someone
TTITLE15=Don't Take Your Guns to Town
TTITLE16=I'd Rather Die Young
TTITLE17=Pickin' Time
TTITLE18=Shepherd of My Heart
TTITLE19=Supper Time
EXTD=
EXTT0=
EXTT1=
EXTT2=
EXTT3=
EXTT4=
EXTT5=
EXTT6=
EXTT7=
EXTT8=
EXTT9=
EXTT10=
EXTT11=
EXTT12=
EXTT13=
EXTT14=
EXTT15=
EXTT16=
EXTT17=
EXTT18=
EXTT19=
PLAYORDER=
